<?xml version="1.0" encoding="UTF-8" standalone="no"?>
<svg
   xmlns:dc="http://purl.org/dc/elements/1.1/"
   xmlns:cc="http://creativecommons.org/ns#"
   xmlns:rdf="http://www.w3.org/1999/02/22-rdf-syntax-ns#"
   xmlns:svg="http://www.w3.org/2000/svg"
   xmlns="http://www.w3.org/2000/svg"
   width="512"
   height="512"
   viewBox="0 0 135.46667 135.46666"
   version="1.1"
   id="svg8">
  <defs
     id="defs2" />
  <metadata
     id="metadata5">
    <rdf:RDF>
      <cc:Work
         rdf:about="">
        <dc:format>image/svg+xml</dc:format>
        <dc:type
           rdf:resource="http://purl.org/dc/dcmitype/StillImage" />
        <dc:title></dc:title>
      </cc:Work>
    </rdf:RDF>
  </metadata>
  <g
     id="layer1"
     transform="matrix(9.4835911,0,0,9.4835911,-4.1899516,-2702.2715)"
     style="fill:#0f62a8;fill-opacity:1">
    <g
       aria-label="DGH"
       style="font-style:normal;font-variant:normal;font-weight:normal;font-stretch:normal;font-size:10.58333302px;line-height:1.25;font-family:sans-serif;-inkscape-font-specification:sans-serif;letter-spacing:0px;word-spacing:0px;fill:#0f62a8;fill-opacity:1;stroke:none;stroke-width:0.26458332"
       id="text817">
      <path
         d="m 0.49388892,288.06437 v 8.64306 H 2.6423056 c 1.3581945,0 2.0249445,-0.75318 2.0249445,-2.13607 v -4.37092 c 0,-1.38289 -0.66675,-2.13607 -2.0249445,-2.13607 z m 1.35819448,1.23472 h 0.7655278 c 0.4321527,0 0.6914444,0.22225 0.6914444,0.83962 v 4.49438 c 0,0.61737 -0.2592917,0.83962 -0.6914444,0.83962 H 1.8520834 Z"
         style="font-style:normal;font-variant:normal;font-weight:bold;font-stretch:normal;font-size:12.34722233px;font-family:'Bebas Neue';-inkscape-font-specification:'Bebas Neue Bold';stroke-width:0.26458332;fill:#0f62a8;fill-opacity:1"
         id="path819" />
      <path
         d="m 0.52659144,291.89201 7.04476416,1.23472 h 0.6173611 v 1.5928 c 0,0.61736 -0.2716389,0.83961 -0.7037917,0.83961 -0.4321528,0 -0.7037917,-0.22225 -0.7037917,-0.83961 v -4.66725 c 0,-0.61737 0.2716389,-0.85196 0.7037917,-0.85196 0.4321528,0 0.7037917,0.23459 0.7037917,0.85196 v 0.92604 h 1.2841111 v -0.83961 c 0,-1.38289 -0.6914444,-2.17312 -2.0249445,-2.17312 -1.3335,0 -2.0249444,0.79023 -2.0249444,2.17312 v 4.49438 c 0,1.38289 0.6914444,2.17312 2.0249444,2.17312 1.3335001,0 2.0249445,-0.79023 2.0249445,-2.17312 v -2.74108 z"
         style="font-style:normal;font-variant:normal;font-weight:bold;font-stretch:normal;font-size:12.34722233px;font-family:'Bebas Neue';-inkscape-font-specification:'Bebas Neue Bold';stroke-width:0.26458332;fill:#0f62a8;fill-opacity:1"
         id="path821" />
      <path
         d="m 11.715392,296.70743 v -3.70417 h 1.543403 v 3.70417 h 1.382889 v -8.64306 h -1.382889 v 3.70417 h -1.543403 v -3.70417 h -1.358194 v 8.64306 z"
         style="font-style:normal;font-variant:normal;font-weight:bold;font-stretch:normal;font-size:12.34722233px;font-family:'Bebas Neue';-inkscape-font-specification:'Bebas Neue Bold';stroke-width:0.26458332;fill:#0f62a8;fill-opacity:1"
         id="path823" />
    </g>
  </g>
</svg>
